<svg xmlns:dc="http://purl.org/dc/elements/1.1/" xmlns:cc="http://creativecommons.org/ns#" xmlns:rdf="http://www.w3.org/1999/02/22-rdf-syntax-ns#" xmlns:svg="http://www.w3.org/2000/svg" xmlns="http://www.w3.org/2000/svg" xmlns:sodipodi="http://sodipodi.sourceforge.net/DTD/sodipodi-0.dtd" xmlns:inkscape="http://www.inkscape.org/namespaces/inkscape" viewBox="0 0 100 125" version="1.1" x="0px" y="0px"><g transform="translate(0,-952.36216)"><path style="opacity:1;fill:#000000;fill-opacity:1;stroke:none;stroke-width:10;stroke-linecap:round;stroke-linejoin:round;stroke-miterlimit:4;stroke-dasharray:none;stroke-dashoffset:0;stroke-opacity:1" d="m 49.979008,957.36216 -25.142559,13.00244 0.02099,25.9726 25.397207,51.025 24.90889,-51.0579 -0.02098,-25.97231 -25.163553,-12.96983 z m 0.02099,3.96408 21.416951,11.05742 0,22.11483 -21.416951,11.05741 -21.416965,-11.05741 0,-22.11483 21.416965,-11.05742 z"/><path style="color:#000000;font-style:normal;font-variant:normal;font-weight:normal;font-stretch:normal;font-size:medium;line-height:normal;font-family:sans-serif;text-indent:0;text-align:start;text-decoration:none;text-decoration-line:none;text-decoration-style:solid;text-decoration-color:#000000;letter-spacing:normal;word-spacing:normal;text-transform:none;direction:ltr;block-progression:tb;writing-mode:lr-tb;baseline-shift:baseline;text-anchor:start;white-space:normal;clip-rule:nonzero;display:inline;overflow:visible;visibility:visible;opacity:1;isolation:auto;mix-blend-mode:normal;color-interpolation:sRGB;color-interpolation-filters:linearRGB;solid-color:#000000;solid-opacity:1;fill:#000000;fill-opacity:1;fill-rule:evenodd;stroke:none;stroke-width:1.5;stroke-linecap:round;stroke-linejoin:round;stroke-miterlimit:4;stroke-dasharray:none;stroke-dashoffset:0;stroke-opacity:1;color-rendering:auto;image-rendering:auto;shape-rendering:auto;text-rendering:auto;enable-background:accumulate" d="m 49.855143,978.66343 a 0.41202527,0.41202527 0 0 0 -0.405564,0.41842 l 0,18.46528 a 0.41203067,0.41203067 0 1 0 0.824059,0 l 0,-18.46528 a 0.41202527,0.41202527 0 0 0 -0.418495,-0.41842 z"/><path d="m 45.087341,987.08041 c 0.08163,0.001 0.161073,0.0258 0.228495,0.0719 0.06587,0.0451 0.688565,0.47368 1.452697,1.13081 0.763998,0.65712 1.616996,1.47058 1.972963,2.33028 0.269445,0.65056 0.240763,1.48912 0.186651,2.20691 -0.05412,0.7178 -0.161981,1.30461 -0.161981,1.30461 -0.05437,0.29387 -0.393689,0.4339 -0.639482,0.26393 0,0 -0.687411,-0.47368 -1.451531,-1.13081 -0.764133,-0.65713 -1.616996,-1.46954 -1.972976,-2.32921 -0.269431,-0.65057 -0.240885,-1.48912 -0.186773,-2.2069 0.05413,-0.71779 0.162103,-1.30462 0.162103,-1.30462 0.03656,-0.19702 0.209505,-0.33917 0.409834,-0.33689 z" style="color:#000000;font-style:normal;font-variant:normal;font-weight:normal;font-stretch:normal;font-size:medium;line-height:normal;font-family:sans-serif;text-indent:0;text-align:start;text-decoration:none;text-decoration-line:none;text-decoration-style:solid;text-decoration-color:#000000;letter-spacing:normal;word-spacing:normal;text-transform:none;direction:ltr;block-progression:tb;writing-mode:lr-tb;baseline-shift:baseline;text-anchor:start;white-space:normal;clip-rule:nonzero;display:inline;overflow:visible;visibility:visible;opacity:1;isolation:auto;mix-blend-mode:normal;color-interpolation:sRGB;color-interpolation-filters:linearRGB;solid-color:#000000;solid-opacity:1;fill:#000000;fill-opacity:1;fill-rule:evenodd;stroke:none;stroke-width:1.5;stroke-linecap:round;stroke-linejoin:round;stroke-miterlimit:4;stroke-dasharray:none;stroke-dashoffset:0;stroke-opacity:1;color-rendering:auto;image-rendering:auto;shape-rendering:auto;text-rendering:auto;enable-background:accumulate"/><path style="color:#000000;font-style:normal;font-variant:normal;font-weight:normal;font-stretch:normal;font-size:medium;line-height:normal;font-family:sans-serif;text-indent:0;text-align:start;text-decoration:none;text-decoration-line:none;text-decoration-style:solid;text-decoration-color:#000000;letter-spacing:normal;word-spacing:normal;text-transform:none;direction:ltr;block-progression:tb;writing-mode:lr-tb;baseline-shift:baseline;text-anchor:start;white-space:normal;clip-rule:nonzero;display:inline;overflow:visible;visibility:visible;opacity:1;isolation:auto;mix-blend-mode:normal;color-interpolation:sRGB;color-interpolation-filters:linearRGB;solid-color:#000000;solid-opacity:1;fill:#000000;fill-opacity:1;fill-rule:evenodd;stroke:none;stroke-width:1.5;stroke-linecap:round;stroke-linejoin:round;stroke-miterlimit:4;stroke-dasharray:none;stroke-dashoffset:0;stroke-opacity:1;color-rendering:auto;image-rendering:auto;shape-rendering:auto;text-rendering:auto;enable-background:accumulate" d="m 45.087341,980.52192 c 0.08163,0.001 0.161073,0.0258 0.228495,0.0719 0.06587,0.0451 0.688565,0.47369 1.452697,1.13081 0.763998,0.65711 1.616996,1.47059 1.972963,2.33028 0.269445,0.65056 0.240763,1.48912 0.186651,2.20692 -0.05412,0.7178 -0.161981,1.3046 -0.161981,1.3046 -0.05437,0.29387 -0.393689,0.43391 -0.639482,0.26394 0,0 -0.687411,-0.47369 -1.451531,-1.13081 -0.764133,-0.65714 -1.616996,-1.46954 -1.972976,-2.32921 -0.269431,-0.65057 -0.240885,-1.48912 -0.186773,-2.20691 0.05413,-0.71778 0.162103,-1.30461 0.162103,-1.30461 0.03656,-0.19702 0.209505,-0.33918 0.409834,-0.33689 z"/><path d="m 45.087341,973.96404 c 0.08163,0.001 0.161073,0.0258 0.228495,0.0719 0.06587,0.0451 0.688565,0.4737 1.452697,1.13081 0.763998,0.65712 1.616996,1.47059 1.972963,2.33029 0.269445,0.65055 0.240763,1.48911 0.186651,2.20691 -0.05412,0.71779 -0.161981,1.30461 -0.161981,1.30461 -0.05437,0.29386 -0.393689,0.43389 -0.639482,0.26394 0,0 -0.687411,-0.4737 -1.451531,-1.13082 -0.764133,-0.65713 -1.616996,-1.46954 -1.972976,-2.32922 -0.269431,-0.65057 -0.240885,-1.48911 -0.186773,-2.2069 0.05413,-0.71779 0.162103,-1.30462 0.162103,-1.30462 0.03656,-0.19701 0.209505,-0.33917 0.409834,-0.33687 z" style="color:#000000;font-style:normal;font-variant:normal;font-weight:normal;font-stretch:normal;font-size:medium;line-height:normal;font-family:sans-serif;text-indent:0;text-align:start;text-decoration:none;text-decoration-line:none;text-decoration-style:solid;text-decoration-color:#000000;letter-spacing:normal;word-spacing:normal;text-transform:none;direction:ltr;block-progression:tb;writing-mode:lr-tb;baseline-shift:baseline;text-anchor:start;white-space:normal;clip-rule:nonzero;display:inline;overflow:visible;visibility:visible;opacity:1;isolation:auto;mix-blend-mode:normal;color-interpolation:sRGB;color-interpolation-filters:linearRGB;solid-color:#000000;solid-opacity:1;fill:#000000;fill-opacity:1;fill-rule:evenodd;stroke:none;stroke-width:1.5;stroke-linecap:round;stroke-linejoin:round;stroke-miterlimit:4;stroke-dasharray:none;stroke-dashoffset:0;stroke-opacity:1;color-rendering:auto;image-rendering:auto;shape-rendering:auto;text-rendering:auto;enable-background:accumulate"/><path style="color:#000000;font-style:normal;font-variant:normal;font-weight:normal;font-stretch:normal;font-size:medium;line-height:normal;font-family:sans-serif;text-indent:0;text-align:start;text-decoration:none;text-decoration-line:none;text-decoration-style:solid;text-decoration-color:#000000;letter-spacing:normal;word-spacing:normal;text-transform:none;direction:ltr;block-progression:tb;writing-mode:lr-tb;baseline-shift:baseline;text-anchor:start;white-space:normal;clip-rule:nonzero;display:inline;overflow:visible;visibility:visible;opacity:1;isolation:auto;mix-blend-mode:normal;color-interpolation:sRGB;color-interpolation-filters:linearRGB;solid-color:#000000;solid-opacity:1;fill:#000000;fill-opacity:1;fill-rule:evenodd;stroke:none;stroke-width:1.5;stroke-linecap:round;stroke-linejoin:round;stroke-miterlimit:4;stroke-dasharray:none;stroke-dashoffset:0;stroke-opacity:1;color-rendering:auto;image-rendering:auto;shape-rendering:auto;text-rendering:auto;enable-background:accumulate" d="m 50.189937,968.92307 c -0.110175,0.008 -0.212609,0.0597 -0.284288,0.14377 0,0 -0.387237,0.45469 -0.792937,1.04927 -0.405565,0.59457 -0.848987,1.30602 -0.940822,2.00413 -0.121412,0.92254 0.210671,2.05283 0.543906,3.00406 0.333248,0.95121 0.693091,1.70586 0.693091,1.70586 0.128392,0.26959 0.491977,0.31739 0.685596,0.0901 0,0 0.387102,-0.45362 0.792802,-1.0482 0.405712,-0.59457 0.848999,-1.30602 0.940956,-2.00414 0.121412,-0.92252 -0.210793,-2.05388 -0.544028,-3.0051 -0.333248,-0.95123 -0.693091,-1.70589 -0.693091,-1.70589 -0.07286,-0.15307 -0.232114,-0.24588 -0.401185,-0.23388 z"/><path style="color:#000000;font-style:normal;font-variant:normal;font-weight:normal;font-stretch:normal;font-size:medium;line-height:normal;font-family:sans-serif;text-indent:0;text-align:start;text-decoration:none;text-decoration-line:none;text-decoration-style:solid;text-decoration-color:#000000;letter-spacing:normal;word-spacing:normal;text-transform:none;direction:ltr;block-progression:tb;writing-mode:lr-tb;baseline-shift:baseline;text-anchor:start;white-space:normal;clip-rule:nonzero;display:inline;overflow:visible;visibility:visible;opacity:1;isolation:auto;mix-blend-mode:normal;color-interpolation:sRGB;color-interpolation-filters:linearRGB;solid-color:#000000;solid-opacity:1;fill:#000000;fill-opacity:1;fill-rule:evenodd;stroke:none;stroke-width:1.5;stroke-linecap:round;stroke-linejoin:round;stroke-miterlimit:4;stroke-dasharray:none;stroke-dashoffset:0;stroke-opacity:1;color-rendering:auto;image-rendering:auto;shape-rendering:auto;text-rendering:auto;enable-background:accumulate" d="m 54.912655,973.96424 c -0.08163,0.001 -0.16106,0.0258 -0.228482,0.0719 -0.06588,0.0451 -0.688577,0.4737 -1.452697,1.13081 -0.76401,0.65712 -1.616996,1.47059 -1.972976,2.33029 -0.269432,0.65055 -0.240762,1.48911 -0.186638,2.20691 0.05412,0.71779 0.161968,1.30461 0.161968,1.30461 0.05438,0.29386 0.39369,0.43389 0.639495,0.26392 0,0 0.687399,-0.47368 1.451531,-1.1308 0.764133,-0.65713 1.616996,-1.46955 1.972963,-2.32922 0.269444,-0.65057 0.240898,-1.48912 0.186773,-2.2069 -0.05411,-0.71779 -0.162091,-1.30462 -0.162091,-1.30462 -0.03656,-0.19701 -0.209504,-0.33917 -0.409846,-0.33688 z"/><path style="color:#000000;font-style:normal;font-variant:normal;font-weight:normal;font-stretch:normal;font-size:medium;line-height:normal;font-family:sans-serif;text-indent:0;text-align:start;text-decoration:none;text-decoration-line:none;text-decoration-style:solid;text-decoration-color:#000000;letter-spacing:normal;word-spacing:normal;text-transform:none;direction:ltr;block-progression:tb;writing-mode:lr-tb;baseline-shift:baseline;text-anchor:start;white-space:normal;clip-rule:nonzero;display:inline;overflow:visible;visibility:visible;opacity:1;isolation:auto;mix-blend-mode:normal;color-interpolation:sRGB;color-interpolation-filters:linearRGB;solid-color:#000000;solid-opacity:1;fill:#000000;fill-opacity:1;fill-rule:evenodd;stroke:none;stroke-width:1.5;stroke-linecap:round;stroke-linejoin:round;stroke-miterlimit:4;stroke-dasharray:none;stroke-dashoffset:0;stroke-opacity:1;color-rendering:auto;image-rendering:auto;shape-rendering:auto;text-rendering:auto;enable-background:accumulate" d="m 54.912655,987.08045 c -0.08163,0.001 -0.16106,0.0258 -0.228482,0.0719 -0.06588,0.0451 -0.688577,0.47369 -1.452697,1.13081 -0.76401,0.65712 -1.616996,1.47058 -1.972976,2.33028 -0.269432,0.65056 -0.240762,1.48912 -0.186638,2.20692 0.05412,0.7178 0.161968,1.30461 0.161968,1.30461 0.05438,0.29386 0.39369,0.43389 0.639495,0.26393 0,0 0.687399,-0.47369 1.451531,-1.13081 0.764133,-0.65714 1.616996,-1.46954 1.972963,-2.32921 0.269444,-0.65058 0.240898,-1.48912 0.186773,-2.20691 -0.05411,-0.71778 -0.162091,-1.30461 -0.162091,-1.30461 -0.03656,-0.19702 -0.209504,-0.33918 -0.409846,-0.33688 z"/><path d="m 54.912655,980.52196 c -0.08163,0.001 -0.16106,0.0258 -0.228482,0.0719 -0.06588,0.0451 -0.688577,0.47369 -1.452697,1.13081 -0.76401,0.65712 -1.616996,1.47058 -1.972976,2.33028 -0.269432,0.65056 -0.240762,1.48912 -0.186638,2.20692 0.05412,0.71779 0.161968,1.30461 0.161968,1.30461 0.05438,0.29386 0.39369,0.43389 0.639495,0.26393 0,0 0.687399,-0.47369 1.451531,-1.13081 0.764133,-0.65714 1.616996,-1.46954 1.972963,-2.32922 0.269444,-0.65057 0.240898,-1.48912 0.186773,-2.2069 -0.05411,-0.71779 -0.162091,-1.30462 -0.162091,-1.30462 -0.03656,-0.19701 -0.209504,-0.33917 -0.409846,-0.33688 z" style="color:#000000;font-style:normal;font-variant:normal;font-weight:normal;font-stretch:normal;font-size:medium;line-height:normal;font-family:sans-serif;text-indent:0;text-align:start;text-decoration:none;text-decoration-line:none;text-decoration-style:solid;text-decoration-color:#000000;letter-spacing:normal;word-spacing:normal;text-transform:none;direction:ltr;block-progression:tb;writing-mode:lr-tb;baseline-shift:baseline;text-anchor:start;white-space:normal;clip-rule:nonzero;display:inline;overflow:visible;visibility:visible;opacity:1;isolation:auto;mix-blend-mode:normal;color-interpolation:sRGB;color-interpolation-filters:linearRGB;solid-color:#000000;solid-opacity:1;fill:#000000;fill-opacity:1;fill-rule:evenodd;stroke:none;stroke-width:1.5;stroke-linecap:round;stroke-linejoin:round;stroke-miterlimit:4;stroke-dasharray:none;stroke-dashoffset:0;stroke-opacity:1;color-rendering:auto;image-rendering:auto;shape-rendering:auto;text-rendering:auto;enable-background:accumulate"/></g></svg>